<svg width="200" height="200" viewBox="0 0 200 200" fill="none" xmlns="http://www.w3.org/2000/svg">
  <rect width="200" height="200" rx="100" fill="#DBEAFE"/>
  <path d="M100 100C111.046 100 120 91.0457 120 80C120 68.9543 111.046 60 100 60C88.9543 60 80 68.9543 80 80C80 91.0457 88.9543 100 100 100Z" fill="#60A5FA"/>
  <path d="M55 140C55 123.431 68.4315 110 85 110H115C131.569 110 145 123.431 145 140V145C145 151.627 139.627 157 133 157H67C60.3726 157 55 151.627 55 145V140Z" fill="#60A5FA"/>
</svg>